/* XPM */
static char *fdc5bb1a9fb443a9ead6b9c97a24fa1dwbTe6Gb9q6JkE5kn[] = {
/* columns rows colors chars-per-pixel */
"64 64 110 2 ",
"   c None",
".  c #6B4747",
"X  c #6D4C4C",
"o  c #714D4D",
"O  c #6E5252",
"+  c #735454",
"@  c #7B5555",
"#  c #7C5959",
"$  c #875757",
"%  c #855B5B",
"&  c #8A5C5C",
"*  c #915E5E",
"=  c #846161",
"-  c #8C6262",
";  c #8B6969",
":  c #946464",
">  c #956868",
",  c #9B6B6B",
"<  c #907070",
"1  c #9E7373",
"2  c #9A7979",
"3  c #A76D6D",
"4  c #A66F6F",
"5  c #A36D6D",
"6  c #A86E6E",
"7  c #A27676",
"8  c #AA7171",
"9  c #AE7272",
"0  c #AE7373",
"q  c #AF7373",
"w  c #AF7474",
"e  c #AC7272",
"r  c #AD7B7B",
"t  c #B07474",
"y  c #B17474",
"u  c #B07575",
"i  c #B17575",
"p  c #B27575",
"a  c #B27676",
"s  c #B17474",
"d  c #B37878",
"f  c #B57B7B",
"g  c #B67D7D",
"h  c #A18282",
"j  c #A68787",
"k  c #A98181",
"l  c #AD8E8E",
"z  c #AF8989",
"x  c #B68080",
"c  c #B98282",
"v  c #B28B8B",
"b  c #BF8B8B",
"n  c #AF9090",
"m  c #B19393",
"M  c #B29494",
"N  c #B99595",
"B  c #B79A9A",
"V  c #B99C9C",
"C  c #BA9C9C",
"Z  c #BF9C9C",
"A  c #BEA1A1",
"S  c #C69797",
"D  c #C49C9C",
"F  c #C99A9A",
"G  c #C2A0A0",
"H  c #C5A3A3",
"J  c #CDA2A2",
"K  c #C8A7A7",
"L  c #C5A9A9",
"P  c #CBABAB",
"I  c #CBAFAF",
"U  c #D5AEAE",
"Y  c #CBB0B0",
"T  c #CCB1B1",
"R  c #CDB1B1",
"E  c #D0B5B5",
"W  c #D4B5B5",
"Q  c #DAB7B7",
"!  c #D4B9B9",
"~  c #D6BCBC",
"^  c #D7BDBD",
"/  c #D9BEBE",
"(  c #DBB9B9",
")  c #DBC1C1",
"_  c #DCC2C2",
"`  c #DDC2C2",
"'  c #DFC3C3",
"]  c #DEC4C4",
"[  c #DFC5C5",
"{  c #DDC1C1",
"}  c #E2C4C4",
"|  c #E3C6C6",
" . c #E1C2C2",
".. c #E3C9C9",
"X. c #E5CCCC",
"o. c #E6CCCC",
"O. c #E7CDCD",
"+. c #E5CACA",
"@. c #E8CECE",
"#. c #E8CFCF",
"$. c #E9CFCF",
"%. c #E9D0D0",
"&. c #EAD0D0",
"*. c #EAD1D1",
"=. c #EAD2D2",
"-. c #EBD2D2",
";. c #EBD3D3",
":. c #ECD3D3",
">. c #EDD4D4",
",. c #EAD1D1",
/* pixels */
"                                                                                                                                ",
"                                                                                                                                ",
"                                                                                                                                ",
"                                                                                                                                ",
"                                                                                                                                ",
"                                                                                                                                ",
"                                                                                                                                ",
"                                                                                                                                ",
"                                                                                                                                ",
"                                                          : : : : : :                                                           ",
"                                                        : : : : : : : : : :                                                     ",
"                                                    : : : : : : : : * : : : :                                                   ",
"                                              : : : : : : : : : : : & : : : :                                                   ",
"                                          : : : : : : : : : : : : : : : : : : : :                                               ",
"                                        : : : : : : * : : : : : : * : : : : : : : :                                             ",
"                                      : : : : : : : : * - & & & & $ & & - : : * : : : : :                                       ",
"                                : : : : : : : : : : : & $ % % % % $ % % % & & : : : : : : : : :                                 ",
"                              : : : : * : : : : : : & % $ % # + o o + + # $ $ & & & : : : : : : :                               ",
"                          : : : : : : : : : : : & & % % @ + + O X X O O + @ $ % % & & : : : : : : : :                           ",
"                      : : : : : : : : : : * : & % % $ + O O O O X X O O O X O # % % % & & : : : : : : :                         ",
"                    : : : : : : : : : : & $ $ % % $ + O O O O O X X O O O X O O + + % $ & : : : : : : : : :                     ",
"                  : : : : : : : : : : & % $ $ $ + + O O O O O O X X O O X X O O O O $ $ & & : : : : : : * : :                   ",
"              : : : : : : : : : - & & % % $ $ + O O O O O O O O X X O O X X O O O O + + $ % & & : : : * : : : : : :             ",
"            > > : : : : : : : & % % & % @ @ o O O O O O X X . X + o X X X O O O O O O O + @ $ % & - & : : : : : : : : :         ",
"        > > > > > : : : : : & % $ # # # O X X O O O O X X ; 2 l / B ; X X X O O O O O O O O @ # % % $ : : : : : : : : : : :     ",
"      > > > > > > > > : & $ % @ + O O O O O X O O X X = C [ :.-.-.:.[ C ; # X O O O O O O O O O @ $ $ & : : : : : : * : : : :   ",
"    > > > > : : : > : & % @ + O O O O O O O X X X + h ..-.-.-.-.-.-.-.-.@.E = . X X O O O O O O + @ % % % & : : * * : : : : : : ",
"  > > > > > : : * : - % # O O O O O O O O O X o 2 T O.-.-.-.-.-.-.-.-.-.-.:.E 2 + X X O O O O O X o % % % % & * : : : : : : : : ",
"> > > > > > > - $ $ % + + O O O O O O O X X = M -.-.-.-.-.-.-.-.-.-.-.-.-.-.-.@.T 2 + X O O O O O X + + # % & : : : : : : : : : ",
"> > > > : : & & % @ + O O O O O O O X X % m _ -.-.-.-.-.-.-.-.-.-.-.-.-.-.-.-.-.:.-.A # X X O O O X O O O @ & : * : : : : : : : ",
"> > > > : : : : % O O O O O O O O X # n _ -.-.-.-.-.-.-.-.-.-.-.-.-.-.-.-.-.-.-.-.-.-.{ n # . O X X O O O + % * 5 q q q q q 5 + ",
"> > > > > > > > - # O O O O O O X # Y >.-.-.-.-.-.-.-.-.-.-.-.-.-.-.-.-.-.-.-.-.-.-.-.-.>.I < o X X O O O + * 6 t t t t t t , O ",
"> > > > > > > > > > % + + O X o j ! -.-.-.-.-.-.-.-.-.-.-.-.-.-.-.-.-.-.-.-.-.-.-.-.-.-.-.-.+.L ; X X O + - w t t t t t t , + O ",
": > > > > > > > > > > : # + o ; O.:.-.-.-.-.-.-.-.-.-.-.-.-.-.-.-.-.-.-.-.-.-.-.-.-.-.-.-.-.-.:.~ ; . X , t t t t t t t , + O O ",
"# - > > > > > > > > > > : - 2 [ -.-.-.-.-.-.-.-.-.-.-.-.-.-.-.-.-.-.-.-.-.-.-.-.-.-.-.-.-.-.-.-.:.~ , : w t t t t t 8 : + O O O ",
"O + # - : > > > > > > > > > 1 P ..:.-.-.-.-.-.-.-.-.-.-.-.-.-.-.-.-.-.-.-.-.-.-.-.-.-.-.-.-.-.-.-.-.F t t t t t t 8 $ O O O O O ",
"O O O O % > > > > > > > > > : > k N { -.-.-.-.-.-.-.-.-.-.-.-.-.-.-.-.-.-.-.-.-.-.-.-.-.-.-.-.-.-.| f t t t t t 5 $ O O O O O O ",
"O O O O O # - > > > > > > > > > : : G -.-.-.-.-.-.-.-.-.-.-.-.-.-.-.-.-.-.-.-.-.-.-.-.-.-.-.-.-.| J d t t t t : + O O O O O O O ",
"O O O O O O + # : > > > > > > > > > , H -.-.-.-.-.-.-.-.-.-.-.-.-.-.-.-.-.-.-.-.-.-.-.-.-.-.-.-.Q t t t t t : + O O O O O O O O ",
"O O O O O O O O # # - > > > > > > > : , z Z { +.-.-.-.-.-.-.-.-.-.-.-.-.-.-.-.-.-.-.-.-.-.-.-.-.W t t t 5 % + O O O O O O O O O ",
"O O O O O O O O O O + % > > > > > > > > : > , D >.-.-.-.-.-.-.-.-.-.-.-.-.-.-.-.-.-.-.-.-.-.-.@.b t t t % O O O O O O O O O O O ",
"O O O O O O O O O O O O % - : > > > > > > > : 1 K ! -.-.-.-.-.-.-.-.-.-.-.-.-.-.-.-.-.-.-.-.-. .x t t : + O O O O O O O O O O   ",
"O O O O O O O O O O O O O O # : > > > > > > > : : , v ! O.-.-.-.-.-.-.-.-.-.-.-.-.-.-.-.-.-.{ b t t , + O O O O O O O O O O     ",
"    O O O O O O O O O O O O O - > > > > > > > > > > : , E +.+.+.+.@.-.-.-.-.-.-.-.-.-.-.+.+.S t t 8 # O O O O O O O O O O       ",
"      O O O O O O O O O O O O + = : > > > > > > > > > > 1 7 r x x S U U  .-.-.-.-.-.-.( c x f t , # O O O O O O O O O O         ",
"          O O O O O O O O O O O O + - > > > > > > > > > : : : , q t t t x b b b b b b g t t 8 : + O O O O O O O O O O           ",
"            O O O O O O O O O O O O + - > > > > > > > > > > > > , 8 t t t t t t t t t t t 5 # O O O O O O O O O O O             ",
"              O O O O O O O O O O O O + % - : : > > > > > > > > > , 5 q t t t t t w w 5 : # O O O O O O O O O O O               ",
"                  O O O O O O O O O O O O + + + # - - : > > > > > > > , : - , , - # # + O O O O O O O O O O O                   ",
"                      O O O O O O O O O O O O O O O O # # # # # # # # # + O O O O O O O O O O O O O O O O O                     ",
"                        O O O O O O O O O O O O O O O O O O O O O O O O O O O O O O O O O O O O O O O O O                       ",
"                            O O O O O O O O O O O O O O O O O O O O O O O O O O O O O O O O O O O O O                           ",
"                                O O O O O O O O O O O O O O O O O O O O O O O O O O O O O O O O O                               ",
"                                    O O O O O O O O O O O O O O O O O O O O O O O O O O O O O                                   ",
"                                      O O O O O O O O O O O O O O O O O O O O O O O O O O O                                     ",
"                                        O O O O O O O O O O O O O O O O O O O O O O O O                                         ",
"                                            O O O O O O O O O O O O O O O O O O O O O                                           ",
"                                              O O O O O O O O O O O O O O O O O O                                               ",
"                                                                                                                                ",
"                                                                                                                                ",
"                                                                                                                                ",
"                                                                                                                                ",
"                                                                                                                                ",
"                                                                                                                                "
};
