/* XPM */
static char *_b13edf1b2d54fceb78341a4b75c5842pdAtqD5uwkgwLksl[] = {
/* columns rows colors chars-per-pixel */
"64 64 228 2 ",
"   c None",
".  c #06080A",
"X  c #0D1113",
"o  c #151516",
"O  c #141718",
"+  c #16191A",
"@  c #1B1C1D",
"#  c #191511",
"$  c #0D0F10",
"%  c #221F1F",
"&  c #2B251F",
"*  c #1F2021",
"=  c #242323",
"-  c #292626",
";  c #2D2B2B",
":  c #2C2628",
">  c #312D2B",
",  c #302822",
"<  c #35312F",
"1  c #333332",
"2  c #3A3533",
"3  c #3B3936",
"4  c #3D3C3A",
"5  c #463632",
"6  c #413936",
"7  c #493C35",
"8  c #433D3A",
"9  c #4A3F3A",
"0  c #4B423C",
"q  c #45413D",
"w  c #5B433C",
"e  c #50443F",
"r  c #454442",
"t  c #4A4743",
"y  c #4B4945",
"u  c #4E4C49",
"i  c #514640",
"p  c #544A43",
"a  c #5C4C45",
"s  c #58534C",
"d  c #535454",
"f  c #5B5954",
"g  c #5B5955",
"h  c #64544C",
"j  c #69554E",
"k  c #675B51",
"l  c #6A5B52",
"z  c #665B55",
"x  c #725C54",
"c  c #654C44",
"v  c #63615C",
"b  c #6B635C",
"n  c #6F6256",
"m  c #7B645A",
"M  c #7D6A5D",
"N  c #75645A",
"B  c #6D6B66",
"V  c #6F6260",
"C  c #736D66",
"Z  c #74716C",
"A  c #78756F",
"S  c #7D7A74",
"D  c #7E7E7A",
"F  c #787670",
"G  c #82685E",
"H  c #85675D",
"J  c #966658",
"K  c #A16C5E",
"L  c #846C61",
"P  c #896D62",
"I  c #857364",
"U  c #8B7365",
"Y  c #897569",
"T  c #94766A",
"R  c #947C6C",
"E  c #9A7B6F",
"W  c #817F7A",
"Q  c #897B72",
"!  c #9B7F72",
"~  c #AE7363",
"^  c #A67A6D",
"/  c #B17A6B",
"(  c #99816D",
")  c #83817B",
"_  c #88857F",
"`  c #968477",
"'  c #A38275",
"]  c #A48C7A",
"[  c #AD8879",
"{  c #B48979",
"}  c #AC927D",
"|  c #B3907E",
" . c #DA8D77",
".. c #DA927C",
"X. c #D7917B",
"o. c #CA8572",
"O. c #EA8B7D",
"+. c #8E8B85",
"@. c #8C8882",
"#. c #938D86",
"$. c #968F86",
"%. c #96918A",
"&. c #9D948B",
"*. c #9D9085",
"=. c #9E9A93",
"-. c #A88F84",
";. c #AF9681",
":. c #BC9585",
">. c #B79884",
",. c #A69F95",
"<. c #BFA28B",
"1. c #A6A097",
"2. c #AAA49B",
"3. c #B6A698",
"4. c #ABAAA6",
"5. c #B2ADA3",
"6. c #BCB6AB",
"7. c #BEBEB2",
"8. c #C49A8A",
"9. c #C99C89",
"0. c #DC9982",
"q. c #EA8E81",
"w. c #E89786",
"e. c #F09F8D",
"r. c #C7A28E",
"t. c #CDA493",
"y. c #CCAD94",
"u. c #C7A895",
"i. c #D2A694",
"p. c #D5AB96",
"a. c #DCAD9B",
"s. c #D8A997",
"d. c #CEB29A",
"f. c #DBB49C",
"g. c #D5B399",
"h. c #DBA48F",
"j. c #EEA292",
"k. c #E9AF97",
"l. c #F5A897",
"z. c #E3B29E",
"x. c #ECB49A",
"c. c #E5B096",
"v. c #F5BA9E",
"b. c #E8A18B",
"n. c #CAB8AC",
"m. c #DEBEA3",
"M. c #D6B9AC",
"N. c #C4BEB3",
"B. c #D7BEB8",
"V. c #E4B5A1",
"C. c #E9B7A2",
"Z. c #E3BBA3",
"A. c #EBBBA5",
"S. c #E3BBAC",
"D. c #EDBDA9",
"F. c #F1BCA5",
"G. c #F7BBA7",
"H. c #E3BBB2",
"J. c #CCC5BA",
"K. c #C8C4B7",
"L. c #D2CABD",
"P. c #DACABC",
"I. c #D2C2B6",
"U. c #ECC4AA",
"Y. c #E7C4A9",
"T. c #F2C4AB",
"R. c #F4CCAE",
"E. c #FBCBAE",
"W. c #F9C2A7",
"Q. c #E5C4B3",
"!. c #ECC4B2",
"~. c #EACBBD",
"^. c #EACBB8",
"/. c #F3C3B2",
"(. c #F3C9B5",
"). c #F9CEB1",
"_. c #FACCBB",
"`. c #F6CABC",
"'. c #EFD2BC",
"]. c #F6D1B2",
"[. c #FBD3B3",
"{. c #FAD0B2",
"}. c #FDD5B5",
"|. c #FCD4B4",
" X c #FED6B6",
".X c #FDD5B5",
"XX c #FFD8B7",
"oX c #F4D1BE",
"OX c #FFDAB9",
"+X c #FFDAB9",
"@X c #FAD1BD",
"#X c #FFE1BF",
"$X c #D5CEC2",
"%X c #D9D2C6",
"&X c #DAD4CA",
"*X c #DBD6C8",
"=X c #EBCDC2",
"-X c #E4CFC3",
";X c #EDD1C4",
":X c #E1DDCF",
">X c #EADBCA",
",X c #F3D4C4",
"<X c #FCDAC3",
"1X c #F5DCCC",
"2X c #FADCCA",
"3X c #F8D6C6",
"4X c #E3DED2",
"5X c #EDDFD1",
"6X c #F5DED3",
"7X c #FCE3CA",
"8X c #E5E1D4",
"9X c #EBE3D4",
"0X c #EDE6D9",
"qX c #E8E4DA",
"wX c #F4E2D3",
"eX c #FBE4D4",
"rX c #F4EBDC",
"tX c #FBECDD",
"yX c #FBE8D8",
"uX c #FCF1DF",
"iX c #F3ECE1",
"pX c #FCEFE1",
"aX c #FEF5E6",
"sX c #FEF7E8",
"dX c #FFFBEC",
"fX c #FEF8E7",
"gX c #FFFEF2",
"hX c #FFFFFB",
/* pixels */
"                  + @ @ = =                                               + @ * =                                               ",
"                  8 6 > = @                                             3 8 2 : *                                               ",
"                0 Y R s = + @ @ + O O O O + + O O + + O O O O + @ @ o = n ( N 2 +                                               ",
"              @ i ;.f.R 3 = = = ; > > > > > > > > > > > > > > ; = = = 3 R f.>.a :                                               ",
"              @ 0 [ c.9.Y p > 2 k I I I M m M L L M m M I I I k 2 > p Y :.c.9.J c 5                                             ",
"              @ 7 J 0.x.f.R 3 i } Y.Y.Z.f.i.p.Z.Z.p.i.f.Z.Y.Y.} i 3 R f.c.0.X.o.K w =                                           ",
"              @ 5 J X.W.E.] 6 p r.+X#XOXE.F.T.|.|.T.F.E.OX#X+Xr.p 6 ] R.v... .../ w =                                           ",
"              @ 5 J X.G.R.] 6 p <.XX+X|.T.A.T.[.[.T.A.T.|.+XXX<.p 6 ] R.v.X. . ./ w =                                           ",
"              @ 5 J X.v.R.>.l M y.|.OX[.T.C.D.).).D.C.T.[.OX|.y.M l >.R.W.b.w...~ w =                                           ",
"              @ 5 J X.v.R.m.<.u.Y.|.XX[.T.C.D.).).D.C.T.[.XX|.Y.u.<.m.[.E.F.k.w.~ w =                                           ",
"              @ 7 J 0.v.[.|.[.[.|.|.|.|.T.A.U.).).D.C.T.[.|.|.|.[.[.|.|.|.|.F.w.~ w =                                           ",
"              @ 9 ^ x.E.|.OXOXOX|.|.|.|.).R.R.[.).D.C.T.[.|.|.|.OXOX|.|.OX|.W.w.~ w =                                           ",
"              @ 0 } R.OX|.|.|.|.|.|.|.|.|.|.|.|.).D.C.T.|.|.|.|.|.|.|.|.|.|.W.b.~ w =                                           ",
"              O 0 ;.|.+X|.|.|.|.|.|.|.|.|.|.|.|.[.T.T.R.|.|.|.|.|.|.|.|.|.|.E.x.{ c =                                           ",
"              @ t ;.[.+X|.|.|.|.|.|.|.[.[.[.|.|.|.[.[.[.|.|.|.|.|.|.|.|.|.|.|.).r.h =                                           ",
"            6 p C u.[.OX|.|.|.|.XXXX|.|.[.[.|.|.|.|.|.|.|.|.|.|.XXOX|.|.|.|.OXOXy.l =                                           ",
"          = s ] d.U.|.|.|.|.|.|.OXOX|.|.|.|.|.|.|.|.|.|.|.|.|.|.OXOXXX|.|.|.OXOXy.l =                                           ",
"          = l y.OXOX|.|.|.+X<X].m.f.U.|.|.|.|.|.|.|.|.|.|.+X<X].m.f.U.|.|.|.OXOXy.l =                                           ",
"          = l d.+XOX|.|.|.eXaXP.Q M >.].OX|.XXOXOXXX|.|.|.eXaXP.Q M >.].OX|.OXOXy.l =                                           ",
"          = l y.OXOX|.|. XeXiX4.r , R R.+X|.].U.U.].|.|.|.eXiX4.r , R R.+X|.OXOXy.l =                                           ",
"          : l y.OXOX|.OX|.M.%.d X # U R.7XOXg.( ( g.OX+X[.n.%.d X # U R.#XOXOXOXy.l =                                           ",
"          : x y.XXOX|.OXR.] 8 X . & ( R.#X].} 7 7 } ].#XR.] 8 X . & ( R.+X|.OXOXy.l =                                           ",
"          : l d.|.E.W.W.F.| z r y B 3.oXm.} I s s L } m.'.3.b r y b >.F.W.W.E.|.y.l =                                           ",
"          = l d.|.G.j.e.j.a.n.N.N.L.9X>X*.0 f ,.,.f 0 *.>X9XJ.N.K.n.a.j.e.j.G.E.y.l =                                           ",
"          = h ;.p.w.q.q.w.G.yXdXdXdXdX0X%.y Z $X$XZ y %.0XdXdXdXdXyXG.w.O.q.l.|.d.z =                                           ",
"            q h H / q.O.w.G.tXdXdXdXdXtXL.2.N.0X0XN.2.L.iXdXdXdXdXyXG.w.O.q.G.7XI.b =                                           ",
"              = 9 ^ e.j.j./.yXsXsXaXaXaXaXaXaXaXaXaXaXaXsXsXsXsXsXyX/.j.e.j.D.;X6.v =                                           ",
"              O 0 -.`.3X`.2XtXsXsXsXsXsXdXdXdXsXsXdXdXdXsXsXsXsXsXtX2X`._._.M.&.F s                                             ",
"              @ u 2.wXaXtXaXaXsXsXsXsXsXsXsXsXsXsXsXsXsXsXsXsXsXsXsXaXtXpXwX3.g ;                                               ",
"                t W 4.*XsXdXsXsXsXsXsXsXsXsXsXsXsXsXsXsXsXsXsXsXsXdXdXsX*X4.S 4                                                 ",
"                  3 f 1.rXdXsXaXsXsXsXsXsXsXsXsXsXsXsXsXsXsXsXsXsXsXdXrX1.f 3                                                   ",
"                    1 F 6.%X6XpXaXsXsXsXsXsXsXsXsXsXsXsXsXsXsXaXtX5X%X6.F 1                                                     ",
"                      r z #.B.6XpXsXdXsXsXsXsXsXsXsXsXsXsXdXsXtX1XM.` z r                                                       ",
"                      o - V n.6XyXtXtXtXtXtXtXtXtXtXtXtXtXtXtXeX,Xu.z : o                                                       ",
"                      $ = B I.eX1X=X=X=X=X=X=X=X~.~.~.~.~.~.=X,X1Xn.b @ .           + + +                                       ",
"                      o - A %XtX,XH.H.H.H.H.H.H.H.M.M.M.S.S.H.;XyX%XW 2 %         ; > > > ;                                     ",
"                      . = Z %XaXwX;X;X;X;X;X=X=X=X=X=X=X;X;X;X6XaX9X3.G a :     6 j N m N h >                                   ",
"                      o ; A %XdXsXpXtXtXtXtXtXtXtXtXtXtXtXtXtXaXsXtX^.9.H 2 + @ 9 E t.s.9.U 6 @                                 ",
"                      s B 1.4XdXdXsXsXsXsXsXsXsXsXsXsXsXsXsXdXdXdXyX@Xk.{ x 6 : 0 [ A.E.V.| N p 2                               ",
"                  o 3 W K.4XiXsXsXsXsXsXsXsXsXsXsXsXsXsXsXsXsXdXdXyX_.x.h.:.G 2 9 ' C.F.V.s.8.T i =                             ",
"                  o 3 %.rXgXsXsXsXsXsXsXsXsXsXsXsXsXsXsXsXsXsXsXsXtX,XT.F.V.' 9 2 G :.s.z.F.C.[ i @                             ",
"                  o 3 %.rXgXsXsXsXsXsXsXsXsXsXsXsXsXsXsXsXsXsXsXsXaXyX2X@XA.' 0 : 6 l [ z.W.C.[ e @                             ",
"                  o 3 #.0XdXsXsXsXsXsXsXsXsXsXsXsXsXsXsXsXsXsXsXsXsXsXpX2XC.' 9 @ + 2 L 8.V.C.>.k <                             ",
"                  o 3 #.0XdXsXsXsXsXsXsXdXdXdXsXsXsXsXsXsXsXsXsXdXdXdXaX2XV.! 9 @ X : a m >.^.Q.-.m 0 @                         ",
"                  o 3 #.0XdXsXsXsXsXsXsXaXtXpXaXsXsXsXsXsXsXsXsXsXsXsXaX2XS.' 0 @     % 2 S L.wXQ.:.x > @                       ",
"                  o 3 #.0XdXsXsXsXsXdXiXL.5.N.9XsXsXsXsXsXsXsXtXwXwXtXaXyX'.-.q o $     * v &.n.^.Q.] x i                       ",
"                  o 3 #.0XdXsXsXsXsXdX0X=.g S $XsXdXsXsXsXsXsXeX^.^.1XaXdXrX3.u @ + *       r A K.wXQ.:.N < +                   ",
"                  o 3 #.0XdXsXsXsXsXdX0X_ 1 g J.dXdXsXsXsXdXdXeX!.D.1XsXgXdXJ.W g f g s   . o d 7.aX2Xf.P < +                   ",
"                  o 3 #.0XdXsXsXsXsXdX0X@.3 z J.dXdXsXsXsXdXdXtX(.U.2XsXgXdX0X$XK.N.5.F < $ o d 7.aX2Xa.L < +                   ",
"                  o 2 #.5XsXsXsXsXsXdX0X+.4 v J.dXdXsXsXsX0X&XI.u.u.M.%X%X%X:XrXaXdX8X_ 1 = 4 F L.uX<Xs.H < +                   ",
"      o o o o o o X > Q ^.yXaXsXsXsXdX0X+.4 v J.dXdXdXgXsXJ._ b k l b C B Z *.M.eXdX0X_ 2 y +.K.0XuX3Xs.L < +                   ",
"    < 1 1 1 1 1 ; ; 8 U t.~.tXsXsXsXdX0X+.4 v J.dXdXsXsX8X1.d 1 1 2 3 3 1 4 N 8.(.tX4X) 3 B L.fXfXtXoXs.L < +                   ",
"  4 B ) ) ) ) ) ) ) ) Y Y 3.5XdXsXsXgX0X+.4 v J.dXgXiXK.=.@.) D D ) W W D W -.t.!.yX8XS 2 Z *XdXyX,X(.a.P < +                   ",
"+ r %.*X8X4X:X:X4X8XJ.S t W *XdXdXsXgX0X+.4 v J.dXgX8X+.u A N.4X8X8X8X8X8X4X-XS.!.eX:X) 4 A %XtXoXA.A.p.L < +                   ",
"+ 8 &.6XdXdXdXdXdXgX8XS 1 B %XdXdXsXgX0X+.4 v J.dXgX4XS 1 b I.aXgXgXgXgXgXgXeX!.D.,X-X1.F &.P.3X/.a.8.! l <                     ",
"@ 6 ! Q.eXsXdXdXdXdX4XS 3 C %XdXdXsXgX0X+.4 v J.dXgX4XD 2 j u.3XtXdXgXdXgXdXwX!.V.D.Q.P.L.P.Q.U.D.t.P e 2                       ",
"@ 3 T z.oXeXpXaXdXdX:XS 3 Z &XdXdXsXgX0X+.4 v J.dXgX8X) 2 h 8./.1XtXaXsXdXsXwX!.z.z.A.,XyX2XD.a.9.' h =                         ",
"@ 6 T z./.^.1XtXdXdX:XS 3 Z &XgXdXdXgX0X#.4 v J.dXgX8X) 2 h 8.D.!.,XeXsXgXdXwX!.z.x.A.(.@X_.D.8.L a 6                           ",
"@ 3 U r.a.V.^.wXaXdX4XS 3 Z %XsXaXpXsX5X@.4 v J.dXgX8X) 2 j 8.C.C.D.,XtXaXpX1XU.z.s.i.t.i.s.i.' p =                             ",
"  2 a G [ a.T.oXeXfX8X) 3 b M.2X2X3X2X^.Q 3 v $XgXhX0X) 2 j r.F.F.D.(.3X2X2XoXT.s.! m x N N N l 6                               ",
"    = 2 G r.z.z.Q.wX%XS 2 h 8.V.V.V.C.i.G 2 v N.aXdX*XS 2 h :.z.z.a.f.V.V.V.V.z.:.l > - > > > ;                                 ",
"      = a U T T ! &.#.g ; 9 G T T T T P a > t ) 1.2.#.g ; 9 G E E T T T T T T T L e @ X + + +                                   ",
"        2 3 6 6 8 q 4 < = ; 2 6 6 6 6 2 > = ; 4 r r 8 < = ; 2 6 6 6 6 6 6 3 2 6 2                                               ",
"          @ @ @ + + + @ = @ @ @ @ @ @ @ @ = @ + + + + @ = @ @ @ @ @ @ @ @ @ @ @ @                                               "
};
