/* XPM */
static char *_5a224bf611a4b42a153c6037288de7cktfiDh8uk5gs5gtV[] = {
/* columns rows colors chars-per-pixel */
"64 64 7 1 ",
"  c #6E5967",
". c #926475",
"X c #AD707B",
"o c #B77F83",
"O c #C39490",
"+ c #D1B1A5",
"@ c #DCCABE",
/* pixels */
"                                                                ",
"                                                                ",
"                                                                ",
"XXXXXXXXXXXXXX.  .XXXXXXXXXXXXXXXXXXXXXXXXXXXXX.  .XXXXXXXXXXXXX",
"XXXXXXXXXXXXXXX  XXXXXXXXXXXXXXXXXXXXXXXXXXXXXXX    X..X.XXXXXXX",
"XXXXXXXXXXXXXXX  XXXXXXXXXXXXXXXXXXXXXXXXXXXXXXX  XXXXXXXXXXXXXX",
"XXXXXXXXXXXXXX.  .XXXXXXXXXXXXXXXXXXXXXXXXXXXXX.  .XXXXXXXXXXXXX",
"                                                                ",
"  .XXXXXXXXXXXXXXXXXXXXXXXXXXXX. .XXXXXXXXXXXXXXXXXXXXXXXXXXXXX.",
"  XXXXXXXXXXXXXXXXXXXXXXXXXXXXXX XXXXXXXXXXXXXXXXXXXXXXXXXXXXXXX",
"  XXXoOOOOOOOOOOOOOOOOOOOOOOOOOo oOOOOOOOOOOOOOOOOOOOOOOOOOOoXXX",
"  .XXOOOOOOOOOOOOOOOOOOoOoOooO   OOOOOOOOOOOOOOOOOOOOOXXOXOXXX  ",
"    XooOooOOOOOOOOO+OO++O++OOOOo   OXOOOOOOOOOOOOOO+O+++O++OOXX.",
"  XXXOO++O+OOOOOOOOOOOOOOOOOOOOO OOOOOOOOOOOOOOOOOOOOOOOOOOOOXXX",
"  .XXoOOOOOOOOOOOOOOOOOOOOOOOOOX XOOOOOOOOOOOOOOOOOOOOOOOOOOoXX.",
"                                                                ",
"OOOO@@@+O++OOOX  XOOO+O++@@@+O++OOOOOOOOOOOOOOOX  XOOO+O+@@++O++",
"OOOOOOOOOOOOOOO  OOOOOOOOOOOOOOOOOOOOOOOOOOOOOOO  OOOOOOOOOOOOOO",
"OOOOOOOOOOOOOOO  oOOOOOOOOOOOOOOOOOOOOOOOOOOOOOO  OOOOOOOOOOOOOO",
"OOOOOOOOOOOOOOo   O  OXXOXOOOOOOOOOOOOOOOOOOOOOO  OOOOOOOOOOOOOO",
"OOOOOOXOXXO      oOO++O+OOOOOOOOOOOOOOOOOOOOOOOO  OOOOOOOOOOOOOO",
"OOOOOOOO+O++OOO  OOOOOOOOOOOOOOOOOOOOOOOOOOOOOOO  OOOOOOOOOOOOOO",
"OOOOOOOOOOOOOOX  XOOOOOOOOOOOOOOOOOOOOOOOOOOOOOX  XOOOOOOOOOOOOO",
"                                                                ",
"  .XXoOOO++O+OOO@@@++OOOOOOOOOOX XOOO+O+++@@+++OOOOOOOOOOOOOoXX.",
"  XXXOOOOOOOOOOOOOOOOOOOOOOOOOOO OOOOOOOOOOOOOOOOOOOOOOOOOOOOXXX",
"  XXXOOOOOOOOOOOOOOOOXXXOOXOO    OOOOOOOOOOOOOOOOOOOOOOOOOOOOXXX",
"  .XXOOOOOOOOOOOOOOOOOOOOO++O+Oo OOOOOOOOOOOOOOOOOOOOOOOOOOOOXX.",
"    XooOoOOOOOOOOOOOOOOOOOOOOOOO OOOOOOOOOOOOOOOOOOOOOOXXXOXO   ",
"  XXXOO+O++OOOOOOOOOOOOOOOOOOOOO OOOOOOOOOOOOOOOOOOOOO+O++O+OXXX",
"  .XXoOOOOOOOOOOOOOOOOOOOOOOOOOX XOOOOOOOOOOOOOOOOOOOOOOOOOOoXX.",
"                                                                ",
"OOO+@+OOO++OOOX  XOOOO+++++OO+OOOOOOOOOOOOOOOOOX  XOOOO+@@+OO+OO",
"OOOOOOOOOOOOOOO  OOOOOOOOOOOOOOOOOOOOOOOOOOOOOOO  OOOOOOOOOOOOOO",
"OOOOOOOOOOOOOOO  OOOOOOOOOOOOOOOOOOOOXOXXXXXOO    OOOOOOOOOOOOOO",
"OOOOOOOOOOOOOOO  OOOOOOOOOOOOOOOOOOOOO+O+++OOOOo  OOOOOOOOOOOOOO",
"OOOOOOOOOOOOOOO  OOOOOOOOOOOOOOOOOOOOOOOOOOOOOOO  OOOOOOOOOOOOOO",
"OOOOOOOOOOOOOOO  OOOOOOOOOOOOOOOOOOOOOOOOOOOOOOO  OOOOOOOOOOOOOO",
"OOOOOOOOOOOOOOX  XOOOOOOOOOOOOOOOOOOOOOOOOOOOOOX  XOOOOOOOOOOOOO",
"                                                                ",
"  .XXoOO++@@@@+OO+++OOOOOOOOOOOX XOOO+O+++++OOOOOOOOOOOOOOOOoXX.",
"  XXXOOOOOOOOOOOOOOOOOOOOOOOOOOO OOOOOOOOOOOOOOOOOOOOOOOOOOOOXXX",
"  XXXOOOOOOOOOOOOOOOOOOOXXOXOO   OOOOOOOOOOOOOOOOOOOOOXOXXOXXX  ",
"  XXXOOOOOOOOOOOOOOOOOO+O++OOOOo OOOOOOOOOOOOOOOOOOOOOO+O++OOXX.",
"  XXXOOOOOOOOOOOOOOOOOOOOOOOOOOO OOOOOOOOOOOOOOOOOOOOOOOOOOOOXXX",
"  XXXOOOOOOOOOOOOOOOOOOOOOOOOOOO OOOOOOOOOOOOOOOOOOOOOOOOOOOOXXX",
"  .XXoOOOOOOOOOOOOOOOOOOOOOOOOOX XOOOOOOOOOOOOOOOOOOOOOOOOOOoXX.",
"                                                                ",
"O++@@@@++O+OOOX  XOOO+O++@@@+O++OOOOOOOOOOOOOOOX  XOOO+O+@@@+O++",
"OOOOOOOOOOOOOOO  OOOOOOOOOOOOOOOOOOOOOOOOOOOOOOO  OOOOOOOOOOOOOO",
"OOOOOOOOOOOOOOO  OOOOOOOOOOOOOOOOOOOOOOOOOOOOOOO  OOOOOOOOOOOOOO",
"OOOOOOOOOOOOOOo  OOOOOOOOOOOOOOOOOOOOOOOOOOOOOOo  OOOOOOOOOOOOOO",
"OOOOOOOXOXXO     OOOOOOOOOOOOOOOOOOOOOOXXOXO      OOOOOOOOOOOOOO",
"OOOOOOOO+O++OOO  OOOOOOOOOOOOOOOOOOOOOOOO+O++OOO  OOOOOOOOOOOOOO",
"OOOOOOOOOOOOOOX  XOOOOOOOOOOOOOOOOOOOOOOOOOOOOOX  XOOOOOOOOOOOOO",
"                                                                ",
"  .XXoOO+@@@+O+OOOOOOOOOOOOOOOOX XOOO+O+++@@@++OOOOOOOOOOOOOoXX.",
"  XXXOOOOOOOOOOOOOOOOOOOOOOOOOOO OOOOOOOOOOOOOOOOOOOOOOOOOOOOXXX",
"  XXXOOOOOOOOOOOOOOOOXXXOOXOO    OOOOOOOOOOOOOOOOOOOOXXXOOXXO   ",
"  XXXOOOOOOOOOOOOOOOOO+OOO++O+Oo OOOOOOOOOOOOOOOOOOO+O+++O++OXX.",
"  XXXOOOOOOOOOOOOOOOOOOOOOOOOOOO OOOOOOOOOOOOOOOOOOOOOOOOOOOOXXX",
"  XXXOOOOOOOOOOOOOOOOOOOOOOOOOOO OOOOOOOOOOOOOOOOOOOOOOOOOOOOXXX",
"  .XXoOOOOOOOOOOOOOOOOOOOOOOOOOX XOOOOOOOOOOOOOOOOOOOOOOOOOOoXX.",
"                                                                "
};
